<?xml version="1.0" encoding="UTF-8" standalone="no"?>
<svg xmlns:rdf="http://www.w3.org/1999/02/22-rdf-syntax-ns#" xmlns="http://www.w3.org/2000/svg" height="50" width="50" version="1.1" y="0px" x="0px" xmlns:cc="http://creativecommons.org/ns#" xmlns:dc="http://purl.org/dc/elements/1.1/" viewBox="0 0 252 252" fill="#000000">
 <defs>
  <style>.cls-1{fill:#961d59;}.cls-1,.cls-2{fill-rule:evenodd;}.cls-2,.cls-3{fill:#d62783;}</style>
 </defs>
 <g fill="none">
  <path style="mix-blend-mode:normal" d="m0 252v-252h252v252z"/>
  <g style="mix-blend-mode:normal">
   <path fill="#a8b7d1" d="m232.31 122.06c0 60.893-49.357 110.25-110.25 110.25s-110.25-49.357-110.25-110.25 49.357-110.25 110.25-110.25 110.25 49.357 110.25 110.25z"/>
   <path fill="#becde8" d="m208.69 122.06c0 47.834-38.791 86.625-86.625 86.625s-86.625-38.791-86.625-86.625 38.791-86.625 86.625-86.625c8.1826 0 16.104 1.1382 23.625 3.2607 1.3381 0.3999 2.6455 0.7998 3.9375 1.2305 6.3369 2.1226 12.366 4.9219 17.919 8.3826 1.1382 0.70752 2.2456 1.415 3.3069 2.1995 22.841 15.596 37.837 41.821 37.837 71.552z"/>
   <path fill="#6e727a" d="m145.69 122.06c0 13.043-10.582 23.625-23.625 23.625s-23.625-10.582-23.625-23.625 10.582-23.625 23.625-23.625 23.625 10.582 23.625 23.625z"/>
   <g fill="#a8b7d1">
    <path d="m137.06 144.84 71.875-41.621-10.244-21.672z"/>
    <path d="m170.85 50.511-21.07 75.489-0.16-86.071c6.3369 2.1226 12.366 4.9219 17.919 8.3826 1.1382 0.70752 2.2456 1.415 3.3069 2.1995z"/>
    <path d="m73.244 191.4 21.056-75.474 0.15381 86.071c-6.3369-2.1226-12.351-4.9219-17.903-8.3826-1.1536-0.7229-2.2456-1.4304-3.3069-2.2148z"/>
    <path d="m194.6 171.33-77.689-21.702 87.286-0.15381c-2.1995 7.7981-5.4294 15.15-9.5977 21.856z"/>
    <path d="m51.695 72.798 77.685 21.702-87.283 0.154c2.1995-7.7981 5.4294-15.15 9.5977-21.856z"/>
    <path d="m38.145 136.69 70.383-39.406-61.77 61.677c-3.9375-7.0906-6.8445-14.581-8.6133-22.271z"/>
    <path d="m106.1 37.668 39.59 70.272-61.834-61.613c7.0598-3.9529 14.55-6.8752 22.241-8.6594z"/>
    <path d="m138.06 206.46-39.59-70.275 61.846 61.616c-7.0906 3.9529-14.566 6.8752-22.256 8.6594z"/>
   </g>
   <g fill="#986ca1">
    <path d="m122.06 7.875c-62.967 0-114.18 51.234-114.18 114.18-0.005 62.96 51.213 114.19 114.18 114.19 62.97 0 114.19-51.23 114.19-114.19 0-62.951-51.22-114.18-114.19-114.18zm0 220.5c-58.614 0-106.31-47.7-106.31-106.32 0-58.614 47.696-106.31 106.31-106.31 58.616 0 106.31 47.696 106.31 106.31 0 58.616-47.696 106.31-106.31 106.31z"/>
    <path d="m175.96 59.324c0.73828 0.646 1.6611 0.95362 2.5686 0.95362 1.1074 0 2.1995-0.46143 2.9839-1.3689 1.415-1.6458 1.2305-4.1374-0.41528-5.5525-2.4917-2.1379-5.1218-4.1682-7.8289-6.0293-1.7996-1.2305-4.2451-0.76904-5.4756 1.0151-1.2305 1.7996-0.78442 4.2451 1.0151 5.4756 2.4763 1.7073 4.8757 3.553 7.1521 5.5064z"/>
    <path d="m192.58 65.23c-1.3689-1.6919-3.8452-1.9534-5.5371-0.58447s-1.9534 3.8452-0.59985 5.5371c2.3225 2.8762 4.3682 5.9216 6.2754 9.0593l-43.097 43.097v-78.166c1.8918 0.67676 3.7837 1.3228 5.6294 2.1379 1.9995 0.86133 4.322-0.03076 5.1834-2.0303 0.87671-1.9841-0.0308-4.3066-2.0149-5.1834-11.49-5.044-23.71-7.597-36.36-7.597-15.827 0-30.7 4.0913-43.666 11.259-0.10766 0.03076-0.19995 0.12305-0.29223 0.16919-27.778 15.489-46.604 45.143-46.604 79.135 0 15.827 4.0913 30.716 11.259 43.666 0.03076 0.0923 0.10767 0.16919 0.13843 0.26147 15.489 27.793 45.158 46.635 79.165 46.635 15.827 0 30.7-4.0913 43.666-11.259 0.10767-0.0308 0.19995-0.12305 0.29224-0.16919 27.778-15.489 46.604-45.143 46.604-79.135 0-20.626-7.1213-40.805-20.041-56.832zm12.17 56.83c0 6.7983-0.90747 13.366-2.4763 19.688h-60.924l55.279-55.279c5.2603 11.059 8.1211 23.225 8.1211 35.591zm-74.336 19.488c-0.0615 0.0615-0.0769 0.13843-0.12305 0.19995h-16.104c-0.0769 0-0.15381 0.0461-0.23071 0.0461l-11.382-11.382c-0.0615-0.0615-0.13843-0.0769-0.19995-0.12305v-16.104c0-0.0769-0.0461-0.15381-0.0461-0.23071l11.382-11.382c0.0615-0.0615 0.0769-0.13843 0.12305-0.19995h16.104c0.0769 0 0.15381-0.0461 0.23071-0.0461l11.382 11.382c0.0615 0.0615 0.13843 0.0769 0.19995 0.12305v16.104c0 0.0769 0.0461 0.15381 0.0461 0.23071zm11.34-99.729v60.954l-55.248-55.248c10.797-5.168 22.825-8.1519 35.561-8.1519 6.7214 0 13.289 0.89209 19.688 2.4456zm-62.462 9.613 43.052 43.066h-78.135c6.413-18.073 18.918-33.238 35.083-43.066zm-37.437 50.941h60.924l-55.248 55.248c-5.173-10.8-8.157-22.83-8.157-35.57 0-6.7983 0.90747-13.366 2.4763-19.688zm9.5823 62.462 43.066-43.051v78.135c-18.072-6.41-33.237-18.92-43.065-35.08zm50.941 37.437v-60.924l55.248 55.248c-10.797 5.168-22.825 8.1518-35.561 8.1518-6.7983 0-13.366-0.90747-19.688-2.4763zm62.462-9.5823-43.051-43.066h78.135c-6.4138 18.073-18.918 33.238-35.084 43.066z"/>
   </g>
  </g>
  <g style="mix-blend-mode:normal">
   <path fill="#f9e3ae" d="m145.66 125.3 9.3314 38.743-34.057-21.379-34.057 21.379 2.8348-11.812 1.8899-7.8746 4.6066-19.056-30.396-26.97 40.278-3.701 14.844-36.892 11.812 29.372 3.0317 7.5202 4.8429 0.4331 35.436 3.2679z"/>
   <path fill="#f6d397" d="m145.66 125.3 9.3314 38.743-34.057-21.379v-84.927l11.812 29.372 3.0317 7.5202 4.8429 0.4331 35.436 3.2679z"/>
   <path fill="#8d6c9f" d="m155 167c-0.66934 0-1.3426-0.1693-1.945-0.51578l-32.12-18.26-32.123 18.26c-1.3505 0.76777-3.0317 0.66934-4.2838-0.25199-1.2521-0.92526-1.8426-2.5002-1.508-4.02l7.8391-35.341-27.64-24.112c-1.1851-1.0316-1.6418-2.6695-1.1615-4.1656 0.47641-1.4962 1.7993-2.5632 3.3624-2.7167l36.959-3.6538 14.966-33.148c0.6339-1.4135 2.0356-2.3191 3.5869-2.3191s2.953 0.90557 3.5869 2.3151l14.966 33.148 36.959 3.6538c1.5592 0.15355 2.8821 1.2245 3.3624 2.7167 0.48035 1.4962 0.0236 3.1341-1.1615 4.1656l-27.64 24.112 7.8391 35.341c0.33467 1.5198-0.25199 3.0947-1.508 4.02-0.68 0.51-1.5 0.77-2.33 0.77zm-34.06-27.25c0.67327 0 1.3426 0.1693 1.945 0.51578l26.356 14.989-6.4256-28.963c-0.31105-1.4056 0.1693-2.8703 1.256-3.8192l22.533-19.659-30.156-2.9805c-1.3977-0.1378-2.6222-1.0158-3.201-2.2954l-12.31-27.28-12.31 27.273c-0.57484 1.2836-1.7993 2.1576-3.201 2.2954l-30.156 2.9805 22.533 19.659c1.0867 0.94495 1.567 2.4136 1.256 3.8192l-6.4256 28.963 26.356-14.989c0.60634-0.34254 1.2757-0.51185 1.949-0.51185z"/>
  </g>
  <path style="mix-blend-mode:normal" d="m126 252c-69.588 0-126-56.41-126-126 0-69.588 56.412-126 126-126s126 56.412 126 126-56.412 126-126 126z"/>
  <path style="mix-blend-mode:normal" d="m126 246.96c-66.804 0-120.96-54.16-120.96-120.96 0-66.804 54.156-120.96 120.96-120.96s120.96 54.156 120.96 120.96-54.156 120.96-120.96 120.96z"/>
 </g>
 <circle cx="206.51" stroke="#986ca1" cy="207.07" r="34.099" stroke-width="5.5515" fill="#fff"/>
 <g transform="matrix(.13936 0 0 .13936 239.9 204.53)">
  <g fill-rule="evenodd">
   <path d="m-108.1 3.8772a19.354 19.354 0 1 1 15.926 -22.277 21.622 21.622 0 0 1 0 5.04 19.253 19.253 0 0 1 -15.926 17.237" class="cls-2" fill="#d62783"/>
   <path d="m-147.21 20.763a18.598 18.598 0 1 1 0.4032 -1.512c0 0.504 0 0.9576-0.4032 1.512" class="cls-2" fill="#d62783"/>
   <path d="m-245.79 58.708a42.084 42.084 0 1 1 42.034 -42.336 41.983 41.983 0 0 1 -42.034 42.336" class="cls-1" fill="#961d59"/>
  </g>
  <g fill="#d62783">
   <g fill-rule="evenodd">
    <path d="m-92.881 54.122a18.598 18.598 0 1 1 0.4032 -1.512c0 0.504 0 0.9576-0.4032 1.512" class="cls-2"/>
    <path d="m-37.542 52.005" class="cls-2"/>
    <path d="m-53.367 3.2682a19.354 19.354 0 1 1 15.926 -22.277 21.622 21.622 0 0 1 0 5.04 19.253 19.253 0 0 1 -15.926 17.237" class="cls-2"/>
    <path d="m-66.874 119.19a19.656 19.656 0 1 1 2.4192 -7.9632 17.489 17.489 0 0 1 -2.4192 7.9632" class="cls-2"/>
    <path d="m-73.88-59.127a19.454 19.454 0 1 1 7.4088 -26.51 18.144 18.144 0 0 1 2.4192 11.239" class="cls-2"/>
   </g>
   <path d="m-245.04 211.97a195.1 195.1 0 1 1 0 -390.15 193.18 193.18 0 0 1 118.44 40.32l-23.839 31.097a155.79 155.79 0 0 0 -250.49 123.69 155.94 155.94 0 0 0 250.54 123.88l23.789 31.147a193.38 193.38 0 0 1 -118.44 40.018z" class="cls-3"/>
  </g>
 </g>
</svg>
